<?xml version="1.0" standalone="no"?>
<!DOCTYPE svg PUBLIC "-//W3C//DTD SVG 20010904//EN"
 "http://www.w3.org/TR/2001/REC-SVG-20010904/DTD/svg10.dtd">
<svg version="1.0" xmlns="http://www.w3.org/2000/svg"
 width="1500.000000pt" height="1500.000000pt" viewBox="0 0 1500.000000 1500.000000"
 preserveAspectRatio="xMidYMid meet">
<metadata>
Created by potrace 1.10, written by Peter Selinger 2001-2011
</metadata>
<g transform="translate(0.000000,1500.000000) scale(0.100000,-0.100000)"
fill="#000000" stroke="none">
<path d="M2605 10950 c-77 -16 -100 -24 -175 -59 -88 -41 -200 -141 -274 -244
-25 -36 -77 -49 -149 -37 -32 5 -62 12 -67 15 -19 12 -126 36 -160 37 -42 0
-106 -25 -137 -54 -51 -47 -68 -97 -67 -193 0 -86 2 -93 37 -151 57 -96 147
-168 385 -309 46 -28 94 -57 107 -65 13 -8 55 -34 94 -58 94 -57 114 -84 106
-140 -12 -79 -62 -197 -128 -299 -15 -24 -27 -45 -27 -49 0 -8 -85 -118 -152
-197 -32 -38 -56 -73 -53 -78 13 -19 44 -8 77 29 42 46 158 199 158 207 0 4
11 21 24 38 36 48 87 151 126 257 l35 95 225 7 c229 6 250 4 250 -31 0 -29 48
-118 86 -160 49 -55 114 -92 178 -102 70 -12 117 -2 182 37 31 19 62 34 68 34
20 0 87 -179 129 -345 46 -179 51 -218 51 -410 0 -235 -9 -275 -129 -610 -133
-370 -161 -501 -151 -703 10 -203 55 -298 224 -473 81 -85 129 -143 142 -174
30 -69 27 -81 -22 -98 -112 -39 -366 -77 -515 -77 l-109 0 -22 30 c-13 18 -22
44 -22 67 0 21 -7 81 -15 133 -8 52 -15 120 -15 151 0 30 -4 80 -10 110 -5 30
-14 108 -19 174 -38 461 -84 814 -121 940 -12 39 -25 84 -29 101 -11 43 -82
181 -117 230 -97 134 -211 217 -358 261 -77 23 -286 29 -346 9 -27 -9 -56 -16
-64 -16 -15 0 -27 -5 -141 -56 -152 -68 -325 -220 -445 -392 -86 -123 -123
-189 -224 -404 -47 -101 -166 -445 -166 -481 0 -11 -6 -43 -14 -71 -8 -28 -20
-69 -26 -91 -15 -53 -39 -220 -53 -373 -9 -85 -17 -126 -27 -132 -32 -20 -147
68 -185 141 -24 47 -44 134 -45 191 0 58 17 175 35 243 36 135 52 204 84 365
53 269 73 708 37 825 -27 86 -53 132 -105 182 -59 57 -119 83 -188 83 -58 0
-113 -22 -113 -44 0 -11 20 -14 93 -12 92 1 92 1 145 -37 111 -82 150 -210
139 -465 -10 -218 -43 -505 -67 -566 -5 -15 -10 -41 -10 -58 0 -17 -7 -56 -16
-87 -68 -243 -78 -294 -78 -416 0 -92 3 -120 23 -174 32 -85 108 -167 193
-208 95 -46 273 -58 883 -58 439 0 496 2 547 18 94 29 148 88 148 163 0 57
-47 96 -153 129 -129 39 -137 65 -75 265 66 216 87 307 94 404 9 140 -11 236
-68 323 -50 77 -49 76 -24 129 13 27 27 64 30 81 4 18 12 35 17 38 18 12 9 35
-14 35 -20 0 -28 -11 -53 -76 -36 -96 -42 -101 -96 -79 -26 10 -70 17 -111 17
-176 0 -325 -163 -227 -246 37 -30 84 -40 155 -33 67 7 125 37 190 98 29 27
56 49 60 49 11 0 33 -29 51 -70 66 -145 60 -285 -25 -575 -21 -71 -47 -163
-57 -203 -18 -72 -18 -72 4 -117 18 -36 32 -50 68 -65 25 -11 55 -20 67 -20
25 0 98 -36 109 -54 30 -45 -20 -127 -91 -146 -105 -28 -699 -40 -986 -20 -82
6 -187 13 -232 16 -60 4 -83 10 -87 21 -4 8 1 77 9 152 25 225 57 391 112 591
48 174 111 336 209 533 154 310 343 522 557 625 179 86 312 112 457 88 144
-24 241 -70 329 -155 60 -58 143 -183 166 -249 9 -26 23 -59 31 -74 8 -14 14
-34 14 -43 0 -10 7 -38 15 -64 29 -93 75 -391 75 -487 0 -22 4 -65 10 -95 5
-30 14 -115 20 -189 6 -74 15 -171 20 -215 5 -44 16 -152 25 -240 29 -284 32
-312 46 -341 22 -45 70 -63 169 -64 127 0 396 36 490 66 25 8 55 14 68 14 12
0 32 10 43 21 18 18 20 29 15 67 -11 79 -45 132 -174 265 -136 141 -170 196
-197 328 -18 84 -20 249 -4 333 17 90 67 275 89 331 25 64 55 144 84 223 70
194 94 303 102 472 11 229 -39 493 -146 770 -44 113 -44 114 -23 162 46 99 55
156 50 299 -7 173 -38 396 -73 519 -41 144 -66 193 -146 298 -103 134 -224
209 -393 243 -108 22 -145 22 -250 -1z m277 -56 c15 -8 35 -14 45 -14 40 0
178 -90 245 -160 76 -79 155 -227 182 -341 28 -117 55 -312 62 -440 14 -260
-39 -395 -182 -465 -62 -30 -122 -30 -185 0 -47 22 -111 86 -134 133 -10 21
-23 47 -29 58 -19 37 -20 218 -1 303 31 138 88 294 162 442 56 113 69 148 60
158 -9 12 -15 10 -32 -11 -11 -15 -29 -43 -40 -64 -10 -21 -24 -45 -30 -53
-16 -21 -100 -221 -125 -298 -27 -83 -47 -180 -55 -274 -4 -43 -13 -85 -20
-95 -11 -15 -38 -17 -218 -21 l-206 -5 -56 51 c-31 28 -67 57 -80 64 -177 94
-485 299 -542 362 -49 53 -93 144 -93 191 0 43 33 124 62 154 51 52 101 53
278 6 157 -42 175 -35 315 126 98 112 242 191 380 209 77 10 202 1 237 -16z
m-972 -2826 c11 -7 20 -19 20 -26 0 -43 -94 -117 -176 -138 -100 -27 -174 16
-143 82 17 34 84 83 130 95 44 11 143 3 169 -13z"/>
<path d="M8255 9810 c-189 -37 -312 -106 -402 -225 -92 -122 -133 -260 -133
-455 0 -252 76 -434 228 -551 98 -75 193 -113 336 -135 253 -38 493 9 652 130
107 80 173 185 214 337 26 98 28 344 4 428 -67 230 -174 355 -368 429 -162 61
-356 77 -531 42z m315 -331 c58 -26 96 -62 128 -124 26 -49 27 -55 27 -225 0
-171 -1 -176 -27 -226 -41 -77 -94 -118 -182 -138 -69 -17 -77 -17 -142 0
-124 30 -184 104 -205 251 -12 82 -6 233 11 295 19 67 70 130 130 160 72 36
189 39 260 7z"/>
<path d="M4321 9778 c-5 -13 -16 -41 -24 -63 -35 -95 -46 -122 -60 -160 -15
-38 -74 -203 -138 -385 -16 -47 -36 -98 -44 -115 -7 -16 -15 -39 -18 -50 -3
-11 -15 -45 -27 -75 -12 -30 -25 -66 -30 -80 -5 -14 -25 -68 -44 -120 -78
-213 -92 -260 -76 -270 8 -6 104 -10 212 -10 l198 0 16 38 c9 20 20 55 26 77
5 22 16 50 24 63 14 22 18 22 222 22 114 0 217 -3 228 -6 16 -4 28 -23 43 -68
12 -34 21 -70 21 -79 0 -9 10 -23 22 -31 18 -13 57 -16 214 -16 106 0 199 3
208 6 9 3 16 14 16 23 0 9 -27 91 -60 181 -33 91 -72 199 -86 240 -15 41 -30
80 -34 85 -4 6 -10 21 -13 35 -3 14 -12 43 -21 65 -42 111 -59 157 -86 230
-15 44 -47 132 -70 195 -23 63 -54 149 -69 190 -15 41 -30 81 -34 88 -6 9 -69
12 -258 12 l-249 0 -9 -22z m288 -453 c6 -22 17 -62 25 -90 59 -191 77 -265
71 -275 -4 -6 -61 -10 -131 -10 -104 0 -126 3 -131 16 -6 15 34 165 93 349 7
22 16 53 19 70 l7 30 18 -25 c11 -14 24 -43 29 -65z"/>
<path d="M5877 9793 c-4 -3 -7 -302 -7 -663 0 -564 2 -659 15 -670 20 -16 686
-9 765 9 153 34 257 82 329 151 137 132 188 286 178 549 -7 204 -41 315 -130
420 -86 103 -181 155 -346 192 -75 17 -129 19 -441 19 -196 0 -360 -3 -363 -7z
m708 -341 c51 -26 86 -65 111 -122 16 -38 19 -68 19 -200 0 -172 -10 -214 -68
-277 -50 -54 -117 -74 -233 -71 l-99 3 -3 339 c-2 265 1 342 10 348 7 5 60 7
118 5 81 -3 115 -9 145 -25z"/>
<path d="M9797 9794 c-4 -4 -7 -303 -7 -664 0 -547 2 -659 14 -669 9 -8 74
-11 212 -9 l199 3 5 215 5 215 210 6 c222 6 252 12 340 64 48 28 116 98 140
145 41 79 55 142 55 246 0 121 -20 195 -74 276 -44 67 -109 120 -185 150 -55
22 -66 23 -482 26 -234 1 -428 -1 -432 -4z m691 -339 c61 -51 61 -169 0 -220
-29 -25 -35 -26 -147 -23 l-116 3 -3 119 c-1 66 0 126 2 133 4 10 35 13 120
13 107 0 116 -2 144 -25z"/>
<path d="M11487 9793 c-13 -12 -8 -308 5 -321 9 -9 70 -12 214 -12 156 0 204
-3 213 -13 7 -10 12 -162 13 -503 l3 -489 200 -3 c179 -2 201 -1 212 15 10 13
13 128 13 499 0 430 2 483 16 488 9 3 102 6 209 6 152 0 195 3 204 14 8 9 11
63 9 167 l-3 154 -651 3 c-358 1 -654 -1 -657 -5z"/>
<path d="M6111 7969 c-57 -41 -74 -84 -69 -178 4 -90 28 -133 92 -162 50 -22
85 -24 131 -5 28 12 35 20 35 43 0 45 -15 57 -65 59 -61 2 -85 24 -85 79 0 51
24 86 60 86 49 1 67 9 78 34 22 49 -7 75 -86 75 -39 0 -58 -6 -91 -31z"/>
<path d="M6447 7977 c-64 -38 -96 -130 -77 -222 26 -127 156 -182 261 -112
100 66 103 258 5 329 -51 36 -131 39 -189 5z m127 -103 c17 -16 21 -38 17 -89
-4 -42 -18 -55 -58 -55 -30 0 -36 5 -49 36 -32 77 38 161 90 108z"/>
<path d="M6801 7978 c-14 -39 -21 -334 -8 -347 15 -15 74 -14 84 2 4 6 10 39
13 72 3 34 9 58 15 56 6 -3 21 -34 35 -70 23 -60 28 -66 56 -69 30 -3 32 0 53
60 12 35 24 69 26 76 13 39 35 -13 35 -82 0 -18 5 -37 12 -44 19 -19 76 -15
87 6 12 22 -7 332 -21 350 -15 17 -99 15 -126 -4 -12 -8 -22 -23 -22 -33 0
-28 -41 -114 -50 -105 -4 5 -17 36 -29 69 -27 73 -41 85 -103 85 -41 0 -50 -3
-57 -22z"/>
<path d="M7302 7988 c-14 -14 -17 -335 -3 -357 13 -20 73 -16 88 5 7 10 13 33
13 51 0 34 2 36 54 48 17 3 45 22 63 41 29 32 33 41 33 92 -1 66 -19 94 -74
117 -43 18 -157 20 -174 3z m133 -128 c0 -16 -6 -26 -17 -28 -14 -3 -18 3 -18
28 0 25 4 31 18 28 11 -2 17 -12 17 -28z"/>
<path d="M7718 7988 c-18 -15 -102 -332 -94 -354 3 -8 20 -14 41 -14 31 0 37
5 52 38 16 33 22 37 61 40 35 3 42 0 42 -15 0 -10 7 -29 16 -41 19 -28 91 -32
101 -6 3 9 -6 65 -21 123 -15 58 -32 126 -37 150 -16 76 -31 91 -92 91 -29 0
-60 -6 -69 -12z m72 -178 c0 -34 -13 -45 -29 -26 -8 10 -8 21 -1 40 12 33 30
25 30 -14z"/>
<path d="M8014 7987 c-2 -7 -3 -91 -2 -187 l3 -175 39 -3 c45 -4 56 7 56 60 0
41 8 68 20 68 5 0 20 -24 34 -53 32 -68 46 -79 93 -75 l38 3 0 185 0 185 -38
3 c-31 3 -38 0 -46 -20 -5 -13 -7 -36 -4 -53 2 -16 -1 -37 -6 -44 -8 -12 -13
-11 -30 10 -11 13 -20 28 -21 33 0 5 -11 24 -26 43 -21 28 -31 33 -65 33 -23
0 -42 -5 -45 -13z"/>
<path d="M8382 7988 c-21 -21 -14 -64 13 -82 23 -15 25 -22 25 -96 0 -73 -2
-82 -25 -102 -27 -23 -32 -57 -13 -76 7 -7 45 -12 99 -12 70 0 88 3 93 16 11
30 6 51 -19 74 -22 21 -25 32 -25 96 0 59 4 77 19 91 26 25 34 58 21 83 -9 18
-20 20 -93 20 -51 0 -88 -5 -95 -12z"/>
<path d="M8715 7972 c-95 -66 -102 -241 -12 -317 86 -74 208 -50 261 52 21 41
21 148 1 197 -9 20 -34 50 -57 66 -57 41 -134 42 -193 2z m139 -104 c21 -30
20 -96 -1 -120 -23 -25 -68 -23 -87 4 -26 37 -16 108 18 130 21 15 55 8 70
-14z"/>
<path d="M9062 7992 c-9 -7 -12 -51 -10 -188 l3 -179 42 -3 c40 -3 42 -2 47
30 3 18 5 48 3 67 -3 54 15 46 58 -27 37 -63 43 -67 79 -70 21 -2 43 1 48 6 5
5 10 86 10 182 -1 187 -1 190 -55 190 -32 0 -39 -12 -41 -78 -1 -62 -21 -62
-57 2 -15 27 -35 56 -45 63 -20 15 -62 17 -82 5z"/>
<path d="M9475 7980 c-35 -23 -43 -41 -44 -93 -1 -52 20 -88 68 -115 28 -16
38 -27 34 -38 -6 -15 -17 -15 -70 1 -16 5 -25 1 -39 -19 -51 -79 105 -141 194
-78 19 14 34 37 42 66 11 39 10 49 -6 83 -12 23 -34 46 -56 58 -49 26 -51 55
-5 55 40 0 57 15 57 50 0 39 -18 50 -84 50 -44 0 -69 -6 -91 -20z"/>
<path d="M9752 7988 c-14 -14 -17 -335 -3 -356 5 -9 24 -12 52 -10 l44 3 5 57
c6 62 6 63 37 72 27 9 34 -3 42 -73 l6 -56 44 -3 c28 -2 47 1 52 10 14 21 11
342 -3 356 -14 14 -67 16 -86 3 -7 -4 -13 -23 -13 -42 0 -67 -9 -89 -34 -89
-31 0 -45 27 -45 83 0 32 -5 47 -16 51 -26 10 -69 7 -82 -6z"/>
<path d="M10121 7991 c-23 -15 -16 -61 13 -87 23 -22 26 -32 26 -95 0 -62 -3
-73 -26 -95 -18 -19 -24 -34 -22 -58 l3 -31 93 -3 c91 -3 92 -2 102 23 13 34
14 30 -20 65 -27 28 -30 37 -30 95 0 54 4 68 26 94 18 22 24 40 22 63 l-3 33
-85 3 c-47 1 -91 -2 -99 -7z"/>
<path d="M10392 7992 c-9 -7 -12 -51 -10 -188 l3 -179 39 -3 c45 -4 56 7 56
60 0 33 4 38 28 44 57 12 95 39 113 79 52 112 -14 195 -153 195 -35 0 -69 -4
-76 -8z m128 -112 c8 -14 8 -26 -1 -41 -10 -19 -13 -20 -26 -6 -10 10 -13 24
-9 41 8 31 21 33 36 6z"/>
</g>
</svg>
